<svg width="25" height="24" viewBox="0 0 25 24" fill="none" xmlns="http://www.w3.org/2000/svg">
<path d="M12.5 9.9C13.1148 9.9 13.7045 10.1739 14.1392 10.6615C14.5739 11.1491 14.8182 11.8104 14.8182 12.5C14.8182 13.1896 14.5739 13.8509 14.1392 14.3385C13.7045 14.8261 13.1148 15.1 12.5 15.1C11.8852 15.1 11.2955 14.8261 10.8608 14.3385C10.4261 13.8509 10.1818 13.1896 10.1818 12.5C10.1818 11.8104 10.4261 11.1491 10.8608 10.6615C11.2955 10.1739 11.8852 9.9 12.5 9.9ZM12.5 6C16.3636 6 19.6632 8.69533 21 12.5C19.6632 16.3047 16.3636 19 12.5 19C8.63636 19 5.33682 16.3047 4 12.5C5.33682 8.69533 8.63636 6 12.5 6ZM5.68455 12.5C6.30911 13.9303 7.27892 15.1353 8.48373 15.9782C9.68855 16.821 11.08 17.2678 12.5 17.2678C13.92 17.2678 15.3115 16.821 16.5163 15.9782C17.7211 15.1353 18.6909 13.9303 19.3155 12.5C18.6909 11.0697 17.7211 9.86469 16.5163 9.02185C15.3115 8.17901 13.92 7.73219 12.5 7.73219C11.08 7.73219 9.68855 8.17901 8.48373 9.02185C7.27892 9.86469 6.30911 11.0697 5.68455 12.5Z" fill="#6A6A6A"/>
</svg>
